# xmcd
#
# Track frame offsets: 
#        150
#        2744
#        20617
#        38655
#        56508
#        73278
#        76601
#        99464
#        113706
#        117235
#        151637
#        156789
#        183329
#        209432
#        231945
#        257508
#
# Disc length: 3448 seconds
#
# Revision: 2
# Processed by: cddbd v1.5.2PL0 Copyright (c) Steve Scherf et al.
# Submitted via: ExactAudioCopyFreeDBPlugin 1.0
#
DISCID=c20d7610
DTITLE=Madlib - Shades Of Blue
DYEAR=2003
DGENRE=Hip-Hop
TTITLE0=Intro
TTITLE1=Slim's Return
TTITLE2=Distant Land
TTITLE3=Mystic Bounce
TTITLE4=Stormy
TTITLE5=Interlude
TTITLE6=Please Set Me At Ease
TTITLE7=Funky Blue Note
TTITLE8=Alfred Lion Interlude
TTITLE9=Stepping Into Tomorrow
TTITLE10=Anderw Hill Break
TTITLE11=Montara
TTITLE12=Song For My Father
TTITLE13=Footprints
TTITLE14=Peace - Dolphin Dance
TTITLE15=Outro
EXTD=YEAR: 2003
EXTT0=
EXTT1=
EXTT2=
EXTT3=
EXTT4=
EXTT5=
EXTT6=
EXTT7=
EXTT8=
EXTT9=
EXTT10=
EXTT11=
EXTT12=
EXTT13=
EXTT14=
EXTT15=
PLAYORDER=
